<svg width="53" height="36" viewBox="0 0 53 36" fill="none" xmlns="http://www.w3.org/2000/svg">
<path d="M52.1658 16.7102C52.0877 16.5392 50.2378 12.4318 46.1516 8.3456C40.6843 2.88675 33.7936 0 26.1914 0C18.5891 0 11.6985 2.88675 6.23753 8.3456C2.15131 12.4318 0.301422 16.5392 0.216953 16.7102C0.0738887 17.0346 0 17.3852 0 17.7397C0 18.0942 0.0738887 18.4448 0.216953 18.7692C0.295087 18.9423 2.14497 23.0476 6.2333 27.1338C11.6985 32.5926 18.5891 35.4773 26.1914 35.4773C33.7936 35.4773 40.6843 32.5926 46.1431 27.1338C50.2314 23.0476 52.0813 18.9423 52.1595 18.7692C52.3035 18.4452 52.3785 18.0949 52.3796 17.7404C52.3807 17.3858 52.3079 17.035 52.1658 16.7102ZM42.4391 23.679C37.9052 28.1432 32.44 30.4091 26.1914 30.4091C19.9427 30.4091 14.4775 28.1432 9.94997 23.6768C8.16839 21.914 6.63589 19.9162 5.39494 17.7386C6.63625 15.562 8.16872 13.5649 9.94997 11.8025C14.4797 7.33408 19.9427 5.06818 26.1914 5.06818C32.44 5.06818 37.9031 7.33408 42.4328 11.8025C44.2142 13.5647 45.7467 15.5618 46.9878 17.7386C45.7467 19.916 44.2142 21.9139 42.4328 23.6768L42.4391 23.679ZM26.1914 8.44697C24.3537 8.44697 22.5572 8.99191 21.0292 10.0129C19.5012 11.0339 18.3103 12.485 17.607 14.1829C16.9037 15.8807 16.7197 17.7489 17.0782 19.5513C17.4368 21.3538 18.3217 23.0094 19.6212 24.3088C20.9206 25.6083 22.5763 26.4932 24.3787 26.8518C26.1811 27.2103 28.0493 27.0263 29.7471 26.323C31.445 25.6197 32.8961 24.4288 33.9171 22.9008C34.9381 21.3728 35.483 19.5763 35.483 17.7386C35.4802 15.2752 34.5004 12.9134 32.7585 11.1715C31.0166 9.4296 28.6548 8.44976 26.1914 8.44697ZM26.1914 21.9621C25.356 21.9621 24.5395 21.7144 23.8449 21.2503C23.1504 20.7862 22.6091 20.1266 22.2894 19.3549C21.9697 18.5831 21.8861 17.7339 22.049 16.9147C22.212 16.0954 22.6143 15.3428 23.2049 14.7522C23.7956 14.1615 24.5481 13.7593 25.3674 13.5963C26.1867 13.4333 27.0359 13.517 27.8076 13.8366C28.5794 14.1563 29.239 14.6976 29.7031 15.3922C30.1672 16.0867 30.4149 16.9033 30.4149 17.7386C30.4149 18.8588 29.9699 19.933 29.1778 20.7251C28.3858 21.5171 27.3115 21.9621 26.1914 21.9621Z" fill="black"/>
</svg>
