<svg width="39" height="55" viewBox="0 0 39 55" fill="none" xmlns="http://www.w3.org/2000/svg">
<path d="M2.5 23.1935C2.5 25.9376 3.68659 28.5694 5.79874 30.5098C7.91089 32.4502 10.7756 33.5403 13.7626 33.5403C16.7496 33.5403 19.6143 32.4502 21.7265 30.5098C23.8386 28.5694 25.0252 25.9376 25.0252 23.1935C25.0252 20.4494 23.8386 17.8177 21.7265 15.8773C19.6143 13.9369 16.7496 12.8468 13.7626 12.8468C10.7756 12.8468 7.91089 13.9369 5.79874 15.8773C3.68659 17.8177 2.5 20.4494 2.5 23.1935Z" stroke="black" stroke-width="5" stroke-linecap="round" stroke-linejoin="round"/>
<path d="M36.2882 2.5L22.21 15.4334" stroke="black" stroke-width="5" stroke-linecap="round" stroke-linejoin="round"/>
<path d="M25.0254 2.5H36.288V12.8467" stroke="black" stroke-width="5" stroke-linecap="round" stroke-linejoin="round"/>
<path d="M13.7627 36.127V51.6471" stroke="black" stroke-width="5" stroke-linecap="round" stroke-linejoin="round"/>
<path d="M5.31641 43.8871H22.2103" stroke="black" stroke-width="5" stroke-linecap="round" stroke-linejoin="round"/>
</svg>
