<svg width="40" height="40" viewBox="0 0 40 40" fill="none" xmlns="http://www.w3.org/2000/svg">
<path d="M20 0C14.6957 0 9.60859 2.10714 5.85786 5.85786C2.10714 9.60859 0 14.6957 0 20V33.3333C0 35.1014 0.702379 36.7971 1.95262 38.0474C3.20286 39.2976 4.89856 40 6.66667 40H9.73778C10.5633 40 11.3725 39.77 12.0747 39.3359C12.7769 38.9018 13.3443 38.2807 13.7133 37.5422L14.1022 36.7644C13.3835 36.2626 12.7111 35.6974 12.0933 35.0756C9.65111 32.6178 7.77778 29.0089 7.77778 24.4444C7.77778 22.8111 8.05333 21.1867 8.55333 19.6511C8.77556 18.9689 9.39111 18.8889 10 18.8889C13.7556 18.8889 17.0778 17.0244 19.0911 14.1667C19.1936 14.0209 19.3297 13.9019 19.4879 13.8197C19.6461 13.7376 19.8218 13.6947 20 13.6947C20.1782 13.6947 20.3539 13.7376 20.5121 13.8197C20.6703 13.9019 20.8064 14.0209 20.9089 14.1667C21.9341 15.6255 23.2954 16.8161 24.8777 17.638C26.4601 18.4599 28.2169 18.889 30 18.8889C30.6089 18.8889 31.2267 18.9689 31.4467 19.6511C31.9545 21.1984 32.2162 22.8159 32.2222 24.4444C32.2222 29.0111 30.3489 32.6178 27.9067 35.0756C27.2733 35.7133 26.5956 36.2778 25.8978 36.7644L26.2867 37.5422C26.6557 38.2807 27.2231 38.9018 27.9253 39.3359C28.6275 39.77 29.4367 40 30.2622 40H33.3333C35.1014 40 36.7971 39.2976 38.0474 38.0474C39.2976 36.7971 40 35.1014 40 33.3333V20C40 14.6957 37.8929 9.60859 34.1421 5.85786C30.3914 2.10714 25.3043 0 20 0Z" fill="black"/>
</svg>
