<svg width="43" height="45" viewBox="0 0 43 45" fill="none" xmlns="http://www.w3.org/2000/svg">
<path d="M20.0202 40.0113C20.0202 41.4102 18.8669 42.5454 17.4456 42.5454H4.57464C4.23919 42.5481 3.9065 42.4847 3.59557 42.3588C3.28463 42.2329 3.00155 42.047 2.76247 41.8116C2.52339 41.5763 2.333 41.2962 2.20218 40.9873C2.07135 40.6784 2.00265 40.3468 2 40.0113V4.25252C2 3.65512 2.23732 3.08218 2.65975 2.65975C3.08218 2.23732 3.65512 2 4.25252 2H17.4456C18.8669 2 20.0202 3.13527 20.0202 4.53409V40.0113Z" stroke="black" stroke-width="4" stroke-linecap="round" stroke-linejoin="round"/>
<path d="M20.0207 15.5151H15.5156" stroke="black" stroke-width="4" stroke-linecap="round" stroke-linejoin="round"/>
<path d="M20.0203 8.75757H13.2627" stroke="black" stroke-width="4" stroke-linecap="round" stroke-linejoin="round"/>
<path d="M20.0203 22.2727H13.2627" stroke="black" stroke-width="4" stroke-linecap="round" stroke-linejoin="round"/>
<path d="M20.0203 35.7879H13.2627" stroke="black" stroke-width="4" stroke-linecap="round" stroke-linejoin="round"/>
<path d="M20.0207 29.0303H15.5156" stroke="black" stroke-width="4" stroke-linecap="round" stroke-linejoin="round"/>
<path d="M40.2933 2H31.2832" stroke="black" stroke-width="4" stroke-linecap="round" stroke-linejoin="round"/>
<path d="M35.7881 2V42.5454" stroke="black" stroke-width="4" stroke-linecap="round" stroke-linejoin="round"/>
<path d="M40.2933 42.5455H31.2832" stroke="black" stroke-width="4" stroke-linecap="round" stroke-linejoin="round"/>
</svg>
