<svg width="40" height="43" viewBox="0 0 40 43" fill="none" xmlns="http://www.w3.org/2000/svg">
<path d="M38.828 17.7485L22.828 1.21053C22.0779 0.435427 21.0607 0 20 0C18.9393 0 17.9221 0.435427 17.172 1.21053L1.17202 17.7485C0.799074 18.1317 0.503433 18.5875 0.302247 19.0896C0.101061 19.5918 -0.00166735 20.1302 2.04649e-05 20.6737V40.5193C2.04649e-05 41.1772 0.252877 41.8082 0.702964 42.2734C1.15305 42.7386 1.7635 43 2.40002 43H15.2C15.8365 43 16.447 42.7386 16.8971 42.2734C17.3471 41.8082 17.6 41.1772 17.6 40.5193V29.7696H22.4V40.5193C22.4 41.1772 22.6529 41.8082 23.1029 42.2734C23.553 42.7386 24.1635 43 24.8 43H37.6C38.2365 43 38.847 42.7386 39.297 42.2734C39.7471 41.8082 40 41.1772 40 40.5193V20.6737C40.0017 20.1302 39.8989 19.5918 39.6978 19.0896C39.4966 18.5875 39.2009 18.1317 38.828 17.7485ZM35.2 38.0386H27.2V27.2889C27.2 26.631 26.9471 26 26.497 25.5348C26.047 25.0696 25.4365 24.8082 24.8 24.8082H15.2C14.5635 24.8082 13.953 25.0696 13.5029 25.5348C13.0529 26 12.8 26.631 12.8 27.2889V38.0386H4.80002V21.0148L20 5.30368L35.2 21.0148V38.0386Z" fill="black"/>
</svg>
