<?xml version="1.0" encoding="UTF-8"?>
<svg id="Lag_1" xmlns="http://www.w3.org/2000/svg" version="1.1" viewBox="0 0 194.42 105.52">
  <!-- Generator: Adobe Illustrator 29.8.2, SVG Export Plug-In . SVG Version: 2.1.1 Build 3)  -->
  <defs>
    <style>
      .st0 {
        fill: #1d1d1b;
      }

      .st1 {
        fill: #f2a4c8;
      }

      .st1, .st2 {
        stroke: #1d1d1b;
        stroke-miterlimit: 10;
        stroke-width: 1.5px;
      }

      .st2 {
        fill: #ef7c86;
      }
    </style>
  </defs>
  <g id="uI8Kry">
    <path class="st0" d="M65.49,81.69l-3.48-4.68,17.41-3.12-5.76,15.73-4.44-3.84c-8.28,8.77-17.89,12.13-17.89,12.13-9.13,3.48-18.61,2.88-18.61,2.88-15.97-1.8-21.01-12.73-21.01-12.73-9.61-14.29-3.24-29.06-3.24-29.06l4.44-7.32c-9.01-13.09-5.52-28.82-5.52-28.82C13.86,7.84,26.35,3.52,26.35,3.52c17.53-1.08,24.73,4.56,24.73,4.56,17.89,10.93,23.89,18.61,23.89,18.61l36.5,37.34,17.05,17.05c9.37,10.21,18.25,13.21,18.25,13.21,6.33,2.56,10.2,3.09,10.2,3.09,13.57.85,20.52-6.82,20.52-6.82,8.48-8.7,6.52-23.83,6.52-23.83-2.69-9.63-8.91-13.36-8.91-13.36,11.37-10.14,9.11-19.17,9.11-19.17-1.14-13.91-10.25-20.65-10.25-20.65-9.32-5.55-20.35-3.48-20.35-3.48-8.44,1.63-16.8,8.58-16.8,8.58l-18.5,16.35,3.7,4.74-16.95,3.03,5.18-16.06,3.92,3.77c14.36-13.39,26.57-21.02,26.57-21.02,10.8-6.36,27.01-4.74,27.01-4.74,11.47,2.96,16.65,12.21,16.65,12.21,6.28,8.64,4.64,17.73,4.64,17.73l-.1,6.01c-.94,7.7-5.81,12.42-5.81,12.42,6.16,7.25,6.11,17.09,6.11,17.09.45,6.76-.79,11.88-.79,11.88-3.73,12.42-14.16,17.74-14.16,17.74-9.09,4.72-21.71,2.24-21.71,2.24-13.76-2.73-24.74-13.37-24.74-13.37l-62.3-63.66c-11.28-9.92-23.67-15.67-23.67-15.67-8.69-3.35-18.49,1.53-18.49,1.53-9.28,7.81-10.63,15.62-10.63,15.62-2.11,9.39,2,17.73,2,17.73,2.82,5.93,6.22,7.46,6.22,7.46-5.05,3.29-8.04,11.63-8.04,11.63-1.94,9.22.47,16.38.47,16.38,5.46,12.15,15.5,15.17,15.5,15.17,10.16.74,17.73-1.14,17.73-1.14,11.33-3.23,18.89-12.07,18.89-12.07Z"/>
    <path class="st2" d="M33.1,50.31c-4.97-2.39-9.81-8.59-9.81-8.59-4.26-7.49-.84-14.66-.84-14.66,4.84-7.36,11.56-8.26,11.56-8.26,11.62-.19,16.98,3.74,16.98,3.74,8.65,3.29,22.73,18.4,22.73,18.4l10.07,11.62-18.21,19.69c-9.3,9.62-22.53,13.37-22.53,13.37-8.01,1.03-10.4-.58-10.4-.58-10.98-5.1-11.5-14.33-11.5-14.33-1.93-8.78,4.21-14.72,4.21-14.72,3.03-4.07,7.75-5.68,7.75-5.68Z"/>
    <path class="st1" d="M166.17,50.11c5.23-.65,10.65-10.46,10.65-10.46,2.91-5.62-.77-13.95-.77-13.95-3.42-6.52-12.59-6.91-12.59-6.91-11.49-.39-19.31,5.17-19.31,5.17-19.76,13.82-29.06,28.02-29.06,28.02l-.52.71c22.34,24.37,30.61,29.02,30.61,29.02,11.88,6.13,20.86,4.07,20.86,4.07,9.23-2.52,11.17-11.3,11.17-11.3,2.91-7.88-1.36-15.5-1.36-15.5-4.52-8.14-9.69-8.88-9.69-8.88Z"/>
    <g>
      <path class="st0" d="M66.24,12.11c-.26-.23-.44-.45-.55-.66-.11-.21-.16-.4-.16-.59,0-.19.03-.35.1-.5.07-.15.14-.27.21-.37.37-.45.71-.86,1.03-1.23.31-.37.62-.72.91-1.06.29-.34.6-.67.91-1,.32-.33.67-.68,1.05-1.04.38-.36.81-.76,1.3-1.18.16-.12.3-.19.44-.23.14-.04.3-.03.49.03.19.06.4.21.62.46.2.22.33.43.38.63.05.2.06.37.03.53-.03.15-.11.31-.22.49-.89.88-1.72,1.72-2.48,2.5-.77.79-1.47,1.57-2.09,2.34.4.3.76.57,1.1.82s.68.48,1.02.71c.34.23.69.47,1.06.71.15.13.27.24.37.35.1.11.19.23.28.36.09.14.14.28.17.44.03.16,0,.3-.07.43-.11.23-.23.39-.37.47-.14.09-.28.14-.4.15-.12.01-.27,0-.45-.04-.46-.31-.9-.6-1.31-.88-.41-.27-.8-.54-1.18-.81-.38-.27-.74-.55-1.1-.85-.36-.29-.72-.62-1.09-.98Z"/>
      <path class="st0" d="M72.65,18.13c-.18-.18-.3-.36-.36-.53-.06-.18-.09-.34-.09-.5,0-.15.03-.32.08-.49.32-.44.62-.84.91-1.19.29-.35.58-.69.88-1,.3-.32.62-.64.97-.98.35-.33.76-.7,1.22-1.11.14-.09.28-.14.4-.17.13-.03.28,0,.45.05.17.06.36.19.57.4.22.22.36.43.41.62.06.2.07.37.04.53-.03.16-.09.33-.19.51-.36.33-.69.65-1,.96-.31.3-.61.61-.9.92-.29.31-.59.64-.91,1-.32.35-.66.76-1.02,1.21-.16.1-.3.17-.43.2-.13.03-.29.02-.46-.03-.17-.05-.36-.18-.58-.4ZM78.02,12.39c-.32-.28-.49-.59-.52-.93s.06-.61.28-.84c.29-.31.59-.45.89-.42.29.04.6.2.91.49.31.29.48.61.5.95.02.34-.07.63-.28.86-.14.15-.29.25-.47.32-.18.07-.37.07-.59,0-.22-.06-.46-.22-.73-.45Z"/>
      <path class="st0" d="M75.62,20.92c-.22-.2-.36-.41-.44-.61-.07-.2-.1-.39-.09-.56s.06-.37.14-.57c.26-.35.56-.72.89-1.12.33-.4.69-.81,1.07-1.23.38-.42.77-.83,1.17-1.24.41-.41.81-.8,1.21-1.18.4-.38.79-.73,1.15-1.06.15-.08.29-.12.43-.14.13-.02.28,0,.45.06.17.06.35.19.54.41.21.22.33.43.38.63.05.2.06.37.03.53-.03.15-.1.32-.19.51-.28.26-.59.57-.94.92-.35.35-.72.72-1.1,1.11-.38.39-.77.8-1.16,1.23-.39.42-.77.84-1.14,1.25-.37.41-.71.81-1.02,1.19-.15.11-.29.18-.41.21-.13.03-.27.03-.44-.01-.17-.04-.35-.15-.54-.33ZM79.67,24.36c-.23-.12-.42-.27-.55-.43-.13-.17-.23-.33-.28-.49s-.09-.35-.12-.56c0-.45,0-.84-.03-1.16-.01-.32-.04-.6-.06-.83-.03-.23-.06-.44-.1-.62-.04-.18-.1-.36-.16-.53-.07-.17-.15-.37-.26-.59l1.23-2.03c.51.42.99.73,1.45.93.46.2.89.32,1.28.38.39.05.74.07,1.03.06.19.03.36.07.49.13.14.06.27.15.41.29.14.13.25.32.36.57.09.25.11.45.06.62-.05.17-.12.31-.23.41-.11.11-.25.21-.43.32-.33.1-.68.15-1.06.15-.38,0-.75-.05-1.13-.14-.38-.09-.74-.23-1.07-.4-.34-.17-.63-.36-.89-.58l.45-.58c.26.38.46.79.6,1.23.14.44.23.88.28,1.32.05.44.06.85.04,1.24-.02.39-.05.71-.08.96-.08.16-.17.28-.26.36-.09.08-.22.13-.37.15-.15.01-.35-.03-.58-.14Z"/>
      <path class="st0" d="M83.11,28.15c-.47-.61-.79-1.18-.96-1.7-.17-.52-.23-.99-.17-1.43.06-.44.2-.83.41-1.19.21-.36.45-.69.71-.99.33-.37.73-.65,1.2-.84.48-.2.98-.3,1.52-.29.53,0,1.07.12,1.61.35.54.23,1.04.59,1.5,1.08.47.49.81.96,1.01,1.4s.3.85.3,1.24c0,.38-.07.72-.2,1.02-.13.3-.29.56-.48.78-.32.36-.72.57-1.2.65-.48.07-1.01-.07-1.61-.43-.16-.1-.34-.23-.52-.39-.19-.16-.38-.34-.58-.53-.2-.19-.39-.38-.58-.56-.18-.18-.34-.35-.48-.5-.14-.15-.3-.33-.48-.52-.07.14-.12.31-.14.52-.02.2.01.44.12.7.1.26.3.53.6.8.32.3.6.55.85.75.25.2.45.36.61.48s.32.23.49.33c.12.11.22.22.31.32.09.1.16.22.21.35s.07.28.04.45c-.02.17-.07.3-.15.37-.08.07-.17.12-.27.14-.1.02-.22.01-.37-.01-.47-.21-.88-.41-1.22-.6-.35-.19-.71-.44-1.08-.73-.37-.29-.7-.62-.99-.99ZM85.12,24.3l1.78,1.64c.1.06.19.12.27.17.08.05.17.08.27.1.1.02.2.02.31-.01.1-.03.21-.09.31-.2.16-.18.26-.35.29-.54.03-.18-.01-.38-.13-.59-.12-.21-.33-.45-.65-.7-.2-.17-.42-.29-.67-.34-.25-.06-.5-.07-.74-.03-.24.03-.46.1-.65.2-.19.1-.32.2-.39.31Z"/>
      <path class="st0" d="M88.22,32.71c-.22-.2-.36-.41-.43-.61-.07-.2-.1-.39-.09-.56s.06-.36.14-.56c.26-.35.56-.72.89-1.12.33-.4.69-.81,1.07-1.23.38-.42.77-.83,1.17-1.24.41-.41.81-.8,1.21-1.18.4-.38.78-.73,1.15-1.06.15-.08.29-.12.43-.14.13-.02.28,0,.45.06.17.06.35.19.54.41.21.22.33.43.38.63.05.2.06.37.03.53-.03.15-.1.32-.19.51-.28.26-.59.57-.94.92-.35.35-.72.72-1.1,1.11-.38.39-.77.8-1.16,1.23-.39.42-.77.84-1.14,1.25-.37.41-.71.81-1.02,1.19-.14.1-.28.17-.41.21-.13.04-.28.04-.44,0-.17-.04-.35-.15-.54-.33Z"/>
      <path class="st0" d="M91.78,40.41c-.62-.52-1.14-1.07-1.57-1.66s-.79-1.19-1.08-1.81c-.08-.21-.12-.39-.14-.54-.02-.16,0-.31.05-.46.05-.15.18-.27.37-.36.18-.09.35-.12.52-.08.17.04.31.11.43.2.12.09.24.22.38.38.22.35.42.67.6.93.18.26.37.51.56.73s.41.45.63.68c.41.35.78.59,1.1.69.33.11.63.11.92,0,.29-.11.58-.31.88-.61.5-.46.93-.89,1.29-1.28.36-.39.68-.76.97-1.12s.56-.73.83-1.1c.27-.38.56-.79.87-1.24.21-.07.4-.08.58-.03.18.04.38.17.61.39.24.21.4.43.47.66.07.23.11.5.11.82-.35.68-.75,1.31-1.18,1.89-.43.58-.9,1.14-1.41,1.7-.51.56-1.09,1.15-1.74,1.77-.75.61-1.53.88-2.35.81-.82-.08-1.72-.53-2.69-1.36ZM92.34,36.32c-.22-.47-.38-.95-.48-1.43-.1-.49-.12-.97-.06-1.44.06-.47.2-.91.43-1.31.2-.33.4-.63.61-.89.2-.26.44-.51.7-.73.26-.23.57-.47.92-.73.18-.09.34-.15.49-.17.15-.02.31,0,.49.04.18.05.37.17.56.38.22.23.37.45.44.66.07.2.09.39.06.55-.03.17-.08.31-.15.43-.07.12-.17.23-.31.34-.48.39-.86.76-1.16,1.1-.29.34-.5.65-.62.93-.12.28-.18.51-.18.7,0,.34.12.65.36.94.25.28.63.55,1.16.8.19.07.42.1.69.1.27,0,.55-.06.84-.17.29-.11.54-.3.77-.56l1.81.95c-.44.7-.93,1.22-1.47,1.54-.54.33-1.12.5-1.74.52-.46,0-.95-.08-1.47-.25-.52-.17-1.01-.45-1.48-.83s-.87-.86-1.22-1.46Z"/>
    </g>
  </g>
</svg>