<svg width="40" height="43" viewBox="0 0 40 43" fill="none" xmlns="http://www.w3.org/2000/svg">
<path d="M12.8164 8.75757C12.8164 10.5498 13.5284 12.2686 14.7957 13.5359C16.0629 14.8032 17.7818 15.5151 19.574 15.5151C21.3662 15.5151 23.085 14.8032 24.3523 13.5359C25.6196 12.2686 26.3316 10.5498 26.3316 8.75757C26.3316 6.96535 25.6196 5.24654 24.3523 3.97925C23.085 2.71196 21.3662 2 19.574 2C17.7818 2 16.0629 2.71196 14.7957 3.97925C13.5284 5.24654 12.8164 6.96535 12.8164 8.75757Z" stroke="black" stroke-width="4" stroke-linecap="round" stroke-linejoin="round"/>
<path d="M7.94025 15.5151H31.2088C31.7364 15.5151 32.2472 15.7001 32.6522 16.0381C33.0573 16.376 33.3309 16.8455 33.4253 17.3645L37.1127 37.6372C37.1718 37.9618 37.1588 38.2955 37.0747 38.6146C36.9905 38.9337 36.8373 39.2304 36.6259 39.4837C36.4145 39.7371 36.1499 39.9408 35.851 40.0807C35.5522 40.2205 35.2262 40.293 34.8962 40.2929H4.25286C3.92288 40.293 3.59692 40.2205 3.29802 40.0807C2.99913 39.9408 2.73461 39.7371 2.52317 39.4837C2.31173 39.2304 2.15853 38.9337 2.07442 38.6146C1.9903 38.2955 1.97731 37.9618 2.03638 37.6372L5.72376 17.3645C5.81819 16.8455 6.09178 16.376 6.49684 16.0381C6.90189 15.7001 7.41272 15.5151 7.94025 15.5151Z" stroke="black" stroke-width="4" stroke-linecap="round" stroke-linejoin="round"/>
</svg>
